<mxfile host="app.diagrams.net" agent="Mozilla/5.0 (X11; Linux x86_64) AppleWebKit/537.36 (KHTML, like Gecko) Chrome/134.0.0.0 Safari/537.36" version="27.1.4">
  <diagram name="Page-1" id="Q1kGPmyqLwD0nfMzDDaY">
    <mxGraphModel dx="1678" dy="933" grid="1" gridSize="10" guides="1" tooltips="1" connect="1" arrows="1" fold="1" page="1" pageScale="1" pageWidth="1169" pageHeight="1654" background="#FFFFFF" math="0" shadow="0">
      <root>
        <mxCell id="0" />
        <mxCell id="1" parent="0" />
        <mxCell id="uqhtFpEZeq0OSkHGxfnI-2" value="Region" style="points=[[0,0],[0.25,0],[0.5,0],[0.75,0],[1,0],[1,0.25],[1,0.5],[1,0.75],[1,1],[0.75,1],[0.5,1],[0.25,1],[0,1],[0,0.75],[0,0.5],[0,0.25]];outlineConnect=0;gradientColor=none;html=1;whiteSpace=wrap;fontSize=12;fontStyle=0;container=1;pointerEvents=0;collapsible=0;recursiveResize=0;shape=mxgraph.aws4.group;grIcon=mxgraph.aws4.group_region;strokeColor=#00A4A6;fillColor=none;verticalAlign=top;align=left;spacingLeft=30;fontColor=#147EBA;dashed=1;" vertex="1" parent="1">
          <mxGeometry x="120" y="250" width="920" height="1280" as="geometry" />
        </mxCell>
        <mxCell id="uqhtFpEZeq0OSkHGxfnI-67" value="" style="rounded=0;whiteSpace=wrap;html=1;fillColor=none;dashed=1;dashPattern=8 8;" vertex="1" parent="uqhtFpEZeq0OSkHGxfnI-2">
          <mxGeometry x="160" y="140" width="590" height="190" as="geometry" />
        </mxCell>
        <mxCell id="uqhtFpEZeq0OSkHGxfnI-4" value="VPC" style="sketch=0;outlineConnect=0;gradientColor=none;html=1;whiteSpace=wrap;fontSize=12;fontStyle=0;shape=mxgraph.aws4.group;grIcon=mxgraph.aws4.group_vpc;strokeColor=#879196;fillColor=none;verticalAlign=top;align=left;spacingLeft=30;fontColor=#879196;dashed=0;" vertex="1" parent="uqhtFpEZeq0OSkHGxfnI-2">
          <mxGeometry x="100" y="60" width="730" height="1140" as="geometry" />
        </mxCell>
        <mxCell id="uqhtFpEZeq0OSkHGxfnI-13" value="" style="rounded=1;arcSize=10;dashed=0;fillColor=#D9EFF0;strokeWidth=2;strokeColor=#10739e;" vertex="1" parent="uqhtFpEZeq0OSkHGxfnI-2">
          <mxGeometry x="120" y="340" width="240" height="200" as="geometry" />
        </mxCell>
        <mxCell id="uqhtFpEZeq0OSkHGxfnI-11" value="Availability Zone" style="fillColor=none;strokeColor=#147EBA;dashed=1;verticalAlign=top;fontStyle=0;fontColor=#147EBA;whiteSpace=wrap;html=1;" vertex="1" parent="uqhtFpEZeq0OSkHGxfnI-2">
          <mxGeometry x="40" y="30" width="360" height="1130" as="geometry" />
        </mxCell>
        <mxCell id="uqhtFpEZeq0OSkHGxfnI-12" value="Availability Zone" style="fillColor=none;strokeColor=#147EBA;dashed=1;verticalAlign=top;fontStyle=0;fontColor=#147EBA;whiteSpace=wrap;html=1;" vertex="1" parent="uqhtFpEZeq0OSkHGxfnI-2">
          <mxGeometry x="520" y="30" width="360" height="1130" as="geometry" />
        </mxCell>
        <mxCell id="uqhtFpEZeq0OSkHGxfnI-15" value="" style="rounded=1;arcSize=10;dashed=0;fillColor=#D9EFF0;gradientColor=none;strokeWidth=2;strokeColor=#10739E;" vertex="1" parent="uqhtFpEZeq0OSkHGxfnI-2">
          <mxGeometry x="120" y="640" width="240" height="200" as="geometry" />
        </mxCell>
        <mxCell id="uqhtFpEZeq0OSkHGxfnI-16" value="" style="dashed=0;html=1;shape=mxgraph.aws3.permissions;fillColor=#D9A741;gradientColor=none;dashed=0;" vertex="1" parent="uqhtFpEZeq0OSkHGxfnI-2">
          <mxGeometry x="150" y="620" width="30" height="35" as="geometry" />
        </mxCell>
        <mxCell id="uqhtFpEZeq0OSkHGxfnI-22" value="" style="rounded=1;arcSize=10;dashed=0;fillColor=#D9EFF0;gradientColor=none;strokeWidth=2;strokeColor=#10739E;" vertex="1" parent="uqhtFpEZeq0OSkHGxfnI-2">
          <mxGeometry x="117.75" y="920.5" width="240" height="200" as="geometry" />
        </mxCell>
        <mxCell id="uqhtFpEZeq0OSkHGxfnI-23" value="" style="dashed=0;html=1;shape=mxgraph.aws3.permissions;fillColor=#D9A741;gradientColor=none;dashed=0;" vertex="1" parent="uqhtFpEZeq0OSkHGxfnI-2">
          <mxGeometry x="147.75" y="900.5" width="30" height="35" as="geometry" />
        </mxCell>
        <mxCell id="uqhtFpEZeq0OSkHGxfnI-29" value="" style="rounded=1;arcSize=10;dashed=0;fillColor=#D9EFF0;gradientColor=none;strokeWidth=2;strokeColor=#10739E;" vertex="1" parent="uqhtFpEZeq0OSkHGxfnI-2">
          <mxGeometry x="560" y="640" width="240" height="200" as="geometry" />
        </mxCell>
        <mxCell id="uqhtFpEZeq0OSkHGxfnI-30" value="" style="dashed=0;html=1;shape=mxgraph.aws3.permissions;fillColor=#D9A741;gradientColor=none;dashed=0;" vertex="1" parent="uqhtFpEZeq0OSkHGxfnI-2">
          <mxGeometry x="580" y="620" width="30" height="35" as="geometry" />
        </mxCell>
        <mxCell id="uqhtFpEZeq0OSkHGxfnI-31" value="" style="rounded=1;arcSize=10;dashed=0;fillColor=#D9EFF0;gradientColor=none;strokeWidth=2;strokeColor=#10739E;" vertex="1" parent="uqhtFpEZeq0OSkHGxfnI-2">
          <mxGeometry x="560" y="920.5" width="240" height="200" as="geometry" />
        </mxCell>
        <mxCell id="uqhtFpEZeq0OSkHGxfnI-32" value="" style="dashed=0;html=1;shape=mxgraph.aws3.permissions;fillColor=#D9A741;gradientColor=none;dashed=0;" vertex="1" parent="uqhtFpEZeq0OSkHGxfnI-2">
          <mxGeometry x="580" y="900.5" width="30" height="35" as="geometry" />
        </mxCell>
        <mxCell id="uqhtFpEZeq0OSkHGxfnI-38" value="" style="outlineConnect=0;dashed=0;verticalLabelPosition=bottom;verticalAlign=top;align=center;html=1;shape=mxgraph.aws3.rds;fillColor=#2E73B8;gradientColor=none;" vertex="1" parent="uqhtFpEZeq0OSkHGxfnI-2">
          <mxGeometry x="201.75" y="980" width="72" height="81" as="geometry" />
        </mxCell>
        <mxCell id="uqhtFpEZeq0OSkHGxfnI-39" value="" style="outlineConnect=0;dashed=0;verticalLabelPosition=bottom;verticalAlign=top;align=center;html=1;shape=mxgraph.aws3.rds;fillColor=#2E73B8;gradientColor=none;" vertex="1" parent="uqhtFpEZeq0OSkHGxfnI-2">
          <mxGeometry x="644" y="980" width="72" height="81" as="geometry" />
        </mxCell>
        <mxCell id="uqhtFpEZeq0OSkHGxfnI-40" value="" style="outlineConnect=0;dashed=0;verticalLabelPosition=bottom;verticalAlign=top;align=center;html=1;shape=mxgraph.aws3.ec2;fillColor=#F58534;gradientColor=none;" vertex="1" parent="uqhtFpEZeq0OSkHGxfnI-2">
          <mxGeometry x="199.5" y="720" width="76.5" height="93" as="geometry" />
        </mxCell>
        <mxCell id="uqhtFpEZeq0OSkHGxfnI-42" value="" style="outlineConnect=0;dashed=0;verticalLabelPosition=bottom;verticalAlign=top;align=center;html=1;shape=mxgraph.aws3.ec2;fillColor=#F58534;gradientColor=none;" vertex="1" parent="uqhtFpEZeq0OSkHGxfnI-2">
          <mxGeometry x="641.75" y="720" width="76.5" height="93" as="geometry" />
        </mxCell>
        <mxCell id="uqhtFpEZeq0OSkHGxfnI-49" value="" style="rounded=1;arcSize=10;dashed=1;fillColor=none;gradientColor=none;dashPattern=8 3 1 3;strokeWidth=2;" vertex="1" parent="uqhtFpEZeq0OSkHGxfnI-2">
          <mxGeometry x="100" y="900.5" width="720" height="239.5" as="geometry" />
        </mxCell>
        <mxCell id="uqhtFpEZeq0OSkHGxfnI-25" value="" style="rounded=1;arcSize=10;dashed=0;fillColor=#D9EFF0;gradientColor=none;strokeWidth=2;strokeColor=#10739E;" vertex="1" parent="uqhtFpEZeq0OSkHGxfnI-2">
          <mxGeometry x="560" y="340" width="240" height="200" as="geometry" />
        </mxCell>
        <mxCell id="uqhtFpEZeq0OSkHGxfnI-46" value="Auto Scaling group" style="points=[[0,0],[0.25,0],[0.5,0],[0.75,0],[1,0],[1,0.25],[1,0.5],[1,0.75],[1,1],[0.75,1],[0.5,1],[0.25,1],[0,1],[0,0.75],[0,0.5],[0,0.25]];outlineConnect=0;gradientColor=none;html=1;whiteSpace=wrap;fontSize=12;fontStyle=0;container=1;pointerEvents=0;collapsible=0;recursiveResize=0;shape=mxgraph.aws4.groupCenter;grIcon=mxgraph.aws4.group_auto_scaling_group;grStroke=1;strokeColor=#D86613;fillColor=none;verticalAlign=top;align=center;fontColor=#D86613;dashed=1;spacingTop=25;" vertex="1" parent="uqhtFpEZeq0OSkHGxfnI-2">
          <mxGeometry x="100" y="410" width="710" height="110" as="geometry" />
        </mxCell>
        <mxCell id="uqhtFpEZeq0OSkHGxfnI-45" value="" style="outlineConnect=0;dashed=0;verticalLabelPosition=bottom;verticalAlign=top;align=center;html=1;shape=mxgraph.aws3.ec2;fillColor=#F58534;gradientColor=none;" vertex="1" parent="uqhtFpEZeq0OSkHGxfnI-46">
          <mxGeometry x="101.75" y="3.5" width="76.5" height="93" as="geometry" />
        </mxCell>
        <mxCell id="uqhtFpEZeq0OSkHGxfnI-186" value="Web Server" style="text;html=1;align=center;verticalAlign=middle;whiteSpace=wrap;rounded=0;" vertex="1" parent="uqhtFpEZeq0OSkHGxfnI-46">
          <mxGeometry x="618.25" y="80" width="84" height="30" as="geometry" />
        </mxCell>
        <mxCell id="uqhtFpEZeq0OSkHGxfnI-44" value="" style="outlineConnect=0;dashed=0;verticalLabelPosition=bottom;verticalAlign=top;align=center;html=1;shape=mxgraph.aws3.ec2;fillColor=#F58534;gradientColor=none;" vertex="1" parent="uqhtFpEZeq0OSkHGxfnI-2">
          <mxGeometry x="641.75" y="413.5" width="76.5" height="93" as="geometry" />
        </mxCell>
        <mxCell id="uqhtFpEZeq0OSkHGxfnI-26" value="" style="dashed=0;html=1;shape=mxgraph.aws3.permissions;fillColor=#D9A741;gradientColor=none;dashed=0;" vertex="1" parent="uqhtFpEZeq0OSkHGxfnI-2">
          <mxGeometry x="580" y="320" width="30" height="35" as="geometry" />
        </mxCell>
        <mxCell id="uqhtFpEZeq0OSkHGxfnI-14" value="" style="dashed=0;html=1;shape=mxgraph.aws3.permissions;fillColor=#D9A741;gradientColor=none;dashed=0;" vertex="1" parent="uqhtFpEZeq0OSkHGxfnI-2">
          <mxGeometry x="140" y="320" width="30" height="35" as="geometry" />
        </mxCell>
        <mxCell id="uqhtFpEZeq0OSkHGxfnI-50" value="Auto Scaling group" style="points=[[0,0],[0.25,0],[0.5,0],[0.75,0],[1,0],[1,0.25],[1,0.5],[1,0.75],[1,1],[0.75,1],[0.5,1],[0.25,1],[0,1],[0,0.75],[0,0.5],[0,0.25]];outlineConnect=0;gradientColor=none;html=1;whiteSpace=wrap;fontSize=12;fontStyle=0;container=1;pointerEvents=0;collapsible=0;recursiveResize=0;shape=mxgraph.aws4.groupCenter;grIcon=mxgraph.aws4.group_auto_scaling_group;grStroke=1;strokeColor=#D86613;fillColor=none;verticalAlign=top;align=center;fontColor=#D86613;dashed=1;spacingTop=25;" vertex="1" parent="uqhtFpEZeq0OSkHGxfnI-2">
          <mxGeometry x="100" y="710" width="730" height="110" as="geometry" />
        </mxCell>
        <mxCell id="uqhtFpEZeq0OSkHGxfnI-187" value="App Server" style="text;html=1;align=center;verticalAlign=middle;whiteSpace=wrap;rounded=0;" vertex="1" parent="uqhtFpEZeq0OSkHGxfnI-50">
          <mxGeometry x="181.13" y="80" width="84" height="30" as="geometry" />
        </mxCell>
        <mxCell id="uqhtFpEZeq0OSkHGxfnI-58" style="edgeStyle=orthogonalEdgeStyle;rounded=0;orthogonalLoop=1;jettySize=auto;html=1;" edge="1" parent="uqhtFpEZeq0OSkHGxfnI-2" source="uqhtFpEZeq0OSkHGxfnI-55" target="uqhtFpEZeq0OSkHGxfnI-44">
          <mxGeometry relative="1" as="geometry" />
        </mxCell>
        <mxCell id="uqhtFpEZeq0OSkHGxfnI-57" style="edgeStyle=orthogonalEdgeStyle;rounded=0;orthogonalLoop=1;jettySize=auto;html=1;entryX=0.382;entryY=0.457;entryDx=0;entryDy=0;entryPerimeter=0;" edge="1" parent="uqhtFpEZeq0OSkHGxfnI-2" source="uqhtFpEZeq0OSkHGxfnI-55" target="uqhtFpEZeq0OSkHGxfnI-45">
          <mxGeometry relative="1" as="geometry" />
        </mxCell>
        <mxCell id="uqhtFpEZeq0OSkHGxfnI-60" style="edgeStyle=orthogonalEdgeStyle;rounded=0;orthogonalLoop=1;jettySize=auto;html=1;" edge="1" parent="uqhtFpEZeq0OSkHGxfnI-2" source="uqhtFpEZeq0OSkHGxfnI-59" target="uqhtFpEZeq0OSkHGxfnI-42">
          <mxGeometry relative="1" as="geometry" />
        </mxCell>
        <mxCell id="uqhtFpEZeq0OSkHGxfnI-61" style="edgeStyle=orthogonalEdgeStyle;rounded=0;orthogonalLoop=1;jettySize=auto;html=1;" edge="1" parent="uqhtFpEZeq0OSkHGxfnI-2" source="uqhtFpEZeq0OSkHGxfnI-59" target="uqhtFpEZeq0OSkHGxfnI-40">
          <mxGeometry relative="1" as="geometry" />
        </mxCell>
        <mxCell id="uqhtFpEZeq0OSkHGxfnI-59" value="" style="outlineConnect=0;dashed=0;verticalLabelPosition=bottom;verticalAlign=top;align=center;html=1;shape=mxgraph.aws3.application_load_balancer;fillColor=#F58536;gradientColor=none;" vertex="1" parent="uqhtFpEZeq0OSkHGxfnI-2">
          <mxGeometry x="425.5" y="560" width="69" height="72" as="geometry" />
        </mxCell>
        <mxCell id="uqhtFpEZeq0OSkHGxfnI-53" value="" style="sketch=0;outlineConnect=0;fontColor=#232F3E;gradientColor=none;fillColor=#8C4FFF;strokeColor=none;dashed=0;verticalLabelPosition=bottom;verticalAlign=top;align=center;html=1;fontSize=12;fontStyle=0;aspect=fixed;pointerEvents=1;shape=mxgraph.aws4.internet_gateway;" vertex="1" parent="uqhtFpEZeq0OSkHGxfnI-2">
          <mxGeometry x="62" y="140" width="78" height="78" as="geometry" />
        </mxCell>
        <mxCell id="uqhtFpEZeq0OSkHGxfnI-55" value="" style="outlineConnect=0;dashed=0;verticalLabelPosition=bottom;verticalAlign=top;align=center;html=1;shape=mxgraph.aws3.application_load_balancer;fillColor=#F58536;gradientColor=none;" vertex="1" parent="uqhtFpEZeq0OSkHGxfnI-2">
          <mxGeometry x="420.5" y="248" width="69" height="72" as="geometry" />
        </mxCell>
        <mxCell id="uqhtFpEZeq0OSkHGxfnI-68" value="" style="sketch=0;outlineConnect=0;fontColor=#232F3E;gradientColor=none;fillColor=#8C4FFF;strokeColor=none;dashed=0;verticalLabelPosition=bottom;verticalAlign=top;align=center;html=1;fontSize=12;fontStyle=0;aspect=fixed;pointerEvents=1;shape=mxgraph.aws4.nat_gateway;" vertex="1" parent="uqhtFpEZeq0OSkHGxfnI-2">
          <mxGeometry x="661" y="150" width="78" height="78" as="geometry" />
        </mxCell>
        <mxCell id="uqhtFpEZeq0OSkHGxfnI-78" value="" style="sketch=0;outlineConnect=0;fontColor=#232F3E;gradientColor=none;fillColor=#8C4FFF;strokeColor=none;dashed=0;verticalLabelPosition=bottom;verticalAlign=top;align=center;html=1;fontSize=12;fontStyle=0;aspect=fixed;pointerEvents=1;shape=mxgraph.aws4.route_table;" vertex="1" parent="uqhtFpEZeq0OSkHGxfnI-2">
          <mxGeometry x="330" y="64" width="78" height="76" as="geometry" />
        </mxCell>
        <mxCell id="uqhtFpEZeq0OSkHGxfnI-79" value="primary DB" style="text;html=1;align=center;verticalAlign=middle;whiteSpace=wrap;rounded=0;" vertex="1" parent="uqhtFpEZeq0OSkHGxfnI-2">
          <mxGeometry x="198.88" y="1070" width="82.25" height="30" as="geometry" />
        </mxCell>
        <mxCell id="uqhtFpEZeq0OSkHGxfnI-80" value="secondary DB" style="text;html=1;align=center;verticalAlign=middle;whiteSpace=wrap;rounded=0;" vertex="1" parent="uqhtFpEZeq0OSkHGxfnI-2">
          <mxGeometry x="644" y="1070" width="82.25" height="30" as="geometry" />
        </mxCell>
        <mxCell id="uqhtFpEZeq0OSkHGxfnI-81" value="RDS" style="text;html=1;align=center;verticalAlign=middle;whiteSpace=wrap;rounded=0;" vertex="1" parent="uqhtFpEZeq0OSkHGxfnI-2">
          <mxGeometry x="207.75" y="950" width="60" height="30" as="geometry" />
        </mxCell>
        <mxCell id="uqhtFpEZeq0OSkHGxfnI-82" value="RDS" style="text;html=1;align=center;verticalAlign=middle;whiteSpace=wrap;rounded=0;" vertex="1" parent="uqhtFpEZeq0OSkHGxfnI-2">
          <mxGeometry x="650" y="950" width="60" height="30" as="geometry" />
        </mxCell>
        <mxCell id="uqhtFpEZeq0OSkHGxfnI-126" value="Web Server" style="text;html=1;align=center;verticalAlign=middle;whiteSpace=wrap;rounded=0;" vertex="1" parent="uqhtFpEZeq0OSkHGxfnI-2">
          <mxGeometry x="276" y="490" width="84" height="30" as="geometry" />
        </mxCell>
        <mxCell id="uqhtFpEZeq0OSkHGxfnI-128" value="Internal Load Balancer" style="text;html=1;align=center;verticalAlign=middle;whiteSpace=wrap;rounded=0;" vertex="1" parent="uqhtFpEZeq0OSkHGxfnI-2">
          <mxGeometry x="402.5" y="640" width="125" height="30" as="geometry" />
        </mxCell>
        <mxCell id="uqhtFpEZeq0OSkHGxfnI-130" value="External Load Balancer" style="text;html=1;align=center;verticalAlign=middle;whiteSpace=wrap;rounded=0;" vertex="1" parent="uqhtFpEZeq0OSkHGxfnI-2">
          <mxGeometry x="396" y="330" width="128" height="30" as="geometry" />
        </mxCell>
        <mxCell id="uqhtFpEZeq0OSkHGxfnI-131" value="Nat Gateway" style="text;html=1;align=center;verticalAlign=middle;whiteSpace=wrap;rounded=0;" vertex="1" parent="uqhtFpEZeq0OSkHGxfnI-2">
          <mxGeometry x="637.5" y="228" width="125" height="30" as="geometry" />
        </mxCell>
        <mxCell id="uqhtFpEZeq0OSkHGxfnI-132" value="Routing tables" style="text;html=1;align=center;verticalAlign=middle;whiteSpace=wrap;rounded=0;" vertex="1" parent="uqhtFpEZeq0OSkHGxfnI-2">
          <mxGeometry x="306.5" y="150" width="125" height="30" as="geometry" />
        </mxCell>
        <mxCell id="uqhtFpEZeq0OSkHGxfnI-135" value="Internet Gatway" style="text;html=1;align=center;verticalAlign=middle;whiteSpace=wrap;rounded=0;" vertex="1" parent="uqhtFpEZeq0OSkHGxfnI-2">
          <mxGeometry x="38.5" y="220" width="125" height="30" as="geometry" />
        </mxCell>
        <mxCell id="uqhtFpEZeq0OSkHGxfnI-188" value="App Server" style="text;html=1;align=center;verticalAlign=middle;whiteSpace=wrap;rounded=0;" vertex="1" parent="uqhtFpEZeq0OSkHGxfnI-2">
          <mxGeometry x="716" y="790" width="84" height="30" as="geometry" />
        </mxCell>
        <mxCell id="uqhtFpEZeq0OSkHGxfnI-190" value="Private Subnet" style="text;html=1;align=center;verticalAlign=middle;whiteSpace=wrap;rounded=0;" vertex="1" parent="uqhtFpEZeq0OSkHGxfnI-2">
          <mxGeometry x="140" y="380" width="84" height="30" as="geometry" />
        </mxCell>
        <mxCell id="uqhtFpEZeq0OSkHGxfnI-191" value="Private Subnet" style="text;html=1;align=center;verticalAlign=middle;whiteSpace=wrap;rounded=0;" vertex="1" parent="uqhtFpEZeq0OSkHGxfnI-2">
          <mxGeometry x="580" y="380" width="84" height="30" as="geometry" />
        </mxCell>
        <mxCell id="uqhtFpEZeq0OSkHGxfnI-192" value="Private Subnet" style="text;html=1;align=center;verticalAlign=middle;whiteSpace=wrap;rounded=0;" vertex="1" parent="uqhtFpEZeq0OSkHGxfnI-2">
          <mxGeometry x="140" y="680" width="84" height="30" as="geometry" />
        </mxCell>
        <mxCell id="uqhtFpEZeq0OSkHGxfnI-193" value="Private Subnet" style="text;html=1;align=center;verticalAlign=middle;whiteSpace=wrap;rounded=0;" vertex="1" parent="uqhtFpEZeq0OSkHGxfnI-2">
          <mxGeometry x="580" y="680" width="84" height="30" as="geometry" />
        </mxCell>
        <mxCell id="uqhtFpEZeq0OSkHGxfnI-194" value="Private Subnet" style="text;html=1;align=center;verticalAlign=middle;whiteSpace=wrap;rounded=0;" vertex="1" parent="uqhtFpEZeq0OSkHGxfnI-2">
          <mxGeometry x="123.75" y="950" width="84" height="30" as="geometry" />
        </mxCell>
        <mxCell id="uqhtFpEZeq0OSkHGxfnI-195" value="Private Subnet" style="text;html=1;align=center;verticalAlign=middle;whiteSpace=wrap;rounded=0;" vertex="1" parent="uqhtFpEZeq0OSkHGxfnI-2">
          <mxGeometry x="577" y="950" width="84" height="30" as="geometry" />
        </mxCell>
        <mxCell id="uqhtFpEZeq0OSkHGxfnI-196" value="public subnets" style="text;html=1;align=center;verticalAlign=middle;whiteSpace=wrap;rounded=0;" vertex="1" parent="uqhtFpEZeq0OSkHGxfnI-2">
          <mxGeometry x="185.75" y="160" width="84" height="30" as="geometry" />
        </mxCell>
        <mxCell id="uqhtFpEZeq0OSkHGxfnI-72" style="edgeStyle=orthogonalEdgeStyle;rounded=0;orthogonalLoop=1;jettySize=auto;html=1;" edge="1" parent="1" source="uqhtFpEZeq0OSkHGxfnI-69" target="uqhtFpEZeq0OSkHGxfnI-55">
          <mxGeometry relative="1" as="geometry" />
        </mxCell>
        <mxCell id="uqhtFpEZeq0OSkHGxfnI-74" style="edgeStyle=orthogonalEdgeStyle;rounded=0;orthogonalLoop=1;jettySize=auto;html=1;" edge="1" parent="1" source="uqhtFpEZeq0OSkHGxfnI-69">
          <mxGeometry relative="1" as="geometry">
            <mxPoint x="460" y="199" as="targetPoint" />
          </mxGeometry>
        </mxCell>
        <mxCell id="uqhtFpEZeq0OSkHGxfnI-69" value="" style="sketch=0;points=[[0,0,0],[0.25,0,0],[0.5,0,0],[0.75,0,0],[1,0,0],[0,1,0],[0.25,1,0],[0.5,1,0],[0.75,1,0],[1,1,0],[0,0.25,0],[0,0.5,0],[0,0.75,0],[1,0.25,0],[1,0.5,0],[1,0.75,0]];outlineConnect=0;fontColor=#232F3E;fillColor=#8C4FFF;strokeColor=#ffffff;dashed=0;verticalLabelPosition=bottom;verticalAlign=top;align=center;html=1;fontSize=12;fontStyle=0;aspect=fixed;shape=mxgraph.aws4.resourceIcon;resIcon=mxgraph.aws4.cloudfront;" vertex="1" parent="1">
          <mxGeometry x="536" y="160" width="78" height="78" as="geometry" />
        </mxCell>
        <mxCell id="uqhtFpEZeq0OSkHGxfnI-73" value="" style="sketch=0;points=[[0,0,0],[0.25,0,0],[0.5,0,0],[0.75,0,0],[1,0,0],[0,1,0],[0.25,1,0],[0.5,1,0],[0.75,1,0],[1,1,0],[0,0.25,0],[0,0.5,0],[0,0.75,0],[1,0.25,0],[1,0.5,0],[1,0.75,0]];outlineConnect=0;fontColor=#232F3E;fillColor=#DD344C;strokeColor=#ffffff;dashed=0;verticalLabelPosition=bottom;verticalAlign=top;align=center;html=1;fontSize=12;fontStyle=0;aspect=fixed;shape=mxgraph.aws4.resourceIcon;resIcon=mxgraph.aws4.waf;" vertex="1" parent="1">
          <mxGeometry x="380" y="160" width="78" height="78" as="geometry" />
        </mxCell>
        <mxCell id="uqhtFpEZeq0OSkHGxfnI-76" value="" style="points=[[0.35,0,0],[0.98,0.51,0],[1,0.71,0],[0.67,1,0],[0,0.795,0],[0,0.65,0]];verticalLabelPosition=bottom;sketch=0;html=1;verticalAlign=top;aspect=fixed;align=center;pointerEvents=1;shape=mxgraph.cisco19.user;fillColor=#005073;strokeColor=none;" vertex="1" parent="1">
          <mxGeometry x="290" y="40" width="72" height="72" as="geometry" />
        </mxCell>
        <mxCell id="uqhtFpEZeq0OSkHGxfnI-77" style="edgeStyle=orthogonalEdgeStyle;rounded=0;orthogonalLoop=1;jettySize=auto;html=1;entryX=0.5;entryY=0;entryDx=0;entryDy=0;entryPerimeter=0;" edge="1" parent="1" source="uqhtFpEZeq0OSkHGxfnI-76" target="uqhtFpEZeq0OSkHGxfnI-69">
          <mxGeometry relative="1" as="geometry" />
        </mxCell>
        <mxCell id="uqhtFpEZeq0OSkHGxfnI-136" value="Cloudfront" style="text;html=1;align=center;verticalAlign=middle;whiteSpace=wrap;rounded=0;" vertex="1" parent="1">
          <mxGeometry x="590" y="190" width="125" height="30" as="geometry" />
        </mxCell>
        <mxCell id="uqhtFpEZeq0OSkHGxfnI-137" value="WAF" style="text;html=1;align=center;verticalAlign=middle;whiteSpace=wrap;rounded=0;" vertex="1" parent="1">
          <mxGeometry x="300" y="190" width="125" height="30" as="geometry" />
        </mxCell>
      </root>
    </mxGraphModel>
  </diagram>
</mxfile>
